<?xml version="1.0" encoding="UTF-8"?>
<svg xmlns="http://www.w3.org/2000/svg" xmlns:xlink="http://www.w3.org/1999/xlink" width="402.666667" height="182.666667" viewBox="0 0 402.666667 182.666667" version="1.1">
<g id="surface1">
<path style="fill:none;stroke-width:1;stroke-linecap:round;stroke-linejoin:miter;stroke:rgb(0%,0%,0%);stroke-opacity:1;stroke-miterlimit:10;" d="M 168.999023 98.514648 L 198.061523 98.488281 " transform="matrix(1.333333,0,0,1.333333,-124,-33.333333)"/>
<path style="fill:none;stroke-width:1;stroke-linecap:butt;stroke-linejoin:miter;stroke:rgb(0%,0%,0%);stroke-opacity:1;stroke-miterlimit:10;" d="M 202.063477 98.485352 L 198.061523 98.488281 M 198.061523 96.988281 L 202.063477 98.485352 L 198.061523 99.988281 " transform="matrix(1.333333,0,0,1.333333,-124,-33.333333)"/>
<path style=" stroke:none;fill-rule:nonzero;fill:rgb(100%,100%,100%);fill-opacity:1;" d="M 1.332031 181.332031 L 101.332031 181.332031 L 101.332031 139.332031 L 1.332031 139.332031 Z M 1.332031 181.332031 "/>
<path style="fill:none;stroke-width:1;stroke-linecap:round;stroke-linejoin:round;stroke:rgb(0%,0%,0%);stroke-opacity:1;stroke-miterlimit:10;" d="M 93.999023 129.499023 L 168.999023 129.499023 L 168.999023 160.999023 L 93.999023 160.999023 Z M 93.999023 129.499023 " transform="matrix(1.333333,0,0,1.333333,-124,-33.333333)"/>
<path style=" stroke:none;fill-rule:nonzero;fill:rgb(0%,0%,0%);fill-opacity:1;" d="M 42.082031 158.542969 L 42.082031 160.3125 L 40.894531 160.3125 C 41.1875 159.542969 41.480469 158.667969 41.730469 157.6875 L 44.042969 157.6875 L 44.042969 156.875 L 41.9375 156.875 C 42.042969 156.394531 42.144531 155.875 42.269531 155.332031 L 41.480469 155.167969 C 41.355469 155.75 41.25 156.332031 41.125 156.875 L 39.9375 156.875 L 39.9375 157.6875 L 40.9375 157.6875 C 40.667969 158.75 40.375 159.667969 40.019531 160.375 L 40.207031 161.105469 L 42.082031 161.105469 L 42.082031 162.894531 C 41.375 163.019531 40.644531 163.144531 39.855469 163.230469 L 39.957031 164.082031 C 40.6875 163.957031 41.394531 163.855469 42.082031 163.707031 L 42.082031 166.207031 L 42.875 166.207031 L 42.875 163.542969 L 44.019531 163.25 L 44.019531 162.4375 C 43.667969 162.519531 43.292969 162.625 42.875 162.730469 L 42.875 161.105469 L 43.980469 161.105469 L 43.980469 160.3125 L 42.875 160.3125 L 42.875 158.542969 Z M 45.625 157.917969 L 45.625 158.625 L 49.0625 158.625 L 49.0625 157.917969 L 45.625 157.917969 C 46.230469 157.332031 46.8125 156.6875 47.375 156 C 48.292969 157.167969 49.3125 158.167969 50.4375 158.980469 L 50.894531 158.3125 C 49.8125 157.542969 48.75 156.519531 47.6875 155.230469 L 47.082031 155.230469 C 46.105469 156.417969 45 157.480469 43.769531 158.375 L 44.25 159.105469 C 44.707031 158.730469 45.167969 158.332031 45.625 157.917969 Z M 46.457031 166.125 C 47.042969 166.125 47.355469 165.8125 47.355469 165.1875 L 47.355469 159.582031 L 44.519531 159.582031 L 44.519531 166.207031 L 45.269531 166.207031 L 45.269531 163.957031 L 46.625 163.957031 L 46.625 165.042969 C 46.625 165.292969 46.480469 165.4375 46.230469 165.4375 L 45.6875 165.417969 L 45.875 166.125 Z M 45.269531 163.292969 L 45.269531 162.144531 L 46.625 162.144531 L 46.625 163.292969 Z M 45.269531 161.480469 L 45.269531 160.292969 L 46.625 160.292969 L 46.625 161.480469 Z M 48.0625 159.917969 L 48.0625 164.230469 L 48.75 164.230469 L 48.75 159.917969 Z M 49.375 166.144531 C 49.957031 166.144531 50.25 165.792969 50.25 165.105469 L 50.25 159.375 L 49.5 159.375 L 49.5 164.917969 C 49.5 165.25 49.375 165.4375 49.105469 165.4375 C 48.8125 165.4375 48.5 165.417969 48.1875 165.375 L 48.355469 166.144531 Z M 49.375 166.144531 "/>
<path style=" stroke:none;fill-rule:nonzero;fill:rgb(0%,0%,0%);fill-opacity:1;" d="M 56.8125 157.980469 C 56.042969 161.167969 54.375 163.625 51.792969 165.292969 L 52.3125 166.042969 C 54.832031 164.394531 56.5 162.042969 57.292969 158.980469 C 57.355469 159.125 57.394531 159.292969 57.480469 159.5 C 58.707031 162.667969 60.292969 164.855469 62.25 166.019531 L 62.792969 165.332031 C 60.875 164.144531 59.375 162.105469 58.25 159.25 C 57.519531 157.292969 56.605469 155.9375 55.542969 155.1875 L 54.832031 155.644531 C 55.582031 156.207031 56.25 156.980469 56.8125 157.980469 Z M 56.8125 157.980469 "/>
<path style=" stroke:none;fill-rule:nonzero;fill:rgb(100%,100%,100%);fill-opacity:1;" d="M 18.167969 103.066406 L 118.167969 103.066406 L 118.167969 61.066406 L 18.167969 61.066406 Z M 18.167969 103.066406 "/>
<path style="fill:none;stroke-width:1;stroke-linecap:round;stroke-linejoin:round;stroke:rgb(0%,0%,0%);stroke-opacity:1;stroke-miterlimit:10;" d="M 106.625977 70.799805 L 181.625977 70.799805 L 181.625977 102.299805 L 106.625977 102.299805 Z M 106.625977 70.799805 " transform="matrix(1.333333,0,0,1.333333,-124,-33.333333)"/>
<path style=" stroke:none;fill-rule:nonzero;fill:rgb(100%,100%,100%);fill-opacity:1;" d="M 10.667969 111.066406 L 110.667969 111.066406 L 110.667969 69.066406 L 10.667969 69.066406 Z M 10.667969 111.066406 "/>
<path style="fill:none;stroke-width:1;stroke-linecap:round;stroke-linejoin:round;stroke:rgb(0%,0%,0%);stroke-opacity:1;stroke-miterlimit:10;" d="M 101.000977 76.799805 L 176.000977 76.799805 L 176.000977 108.299805 L 101.000977 108.299805 Z M 101.000977 76.799805 " transform="matrix(1.333333,0,0,1.333333,-124,-33.333333)"/>
<path style=" stroke:none;fill-rule:nonzero;fill:rgb(100%,100%,100%);fill-opacity:1;" d="M 1.332031 119.066406 L 101.332031 119.066406 L 101.332031 77.066406 L 1.332031 77.066406 Z M 1.332031 119.066406 "/>
<path style="fill:none;stroke-width:1;stroke-linecap:round;stroke-linejoin:round;stroke:rgb(0%,0%,0%);stroke-opacity:1;stroke-miterlimit:10;" d="M 93.999023 82.799805 L 168.999023 82.799805 L 168.999023 114.299805 L 93.999023 114.299805 Z M 93.999023 82.799805 " transform="matrix(1.333333,0,0,1.333333,-124,-33.333333)"/>
<path style=" stroke:none;fill-rule:nonzero;fill:rgb(0%,0%,0%);fill-opacity:1;" d="M 34.980469 93.753906 L 34.980469 103.148438 L 35.8125 103.148438 L 35.8125 93.753906 Z M 37.5 93.171875 L 37.5 103.960938 L 38.355469 103.960938 L 38.355469 93.171875 Z M 32.605469 93.210938 L 32.605469 98.484375 C 32.582031 100.753906 32.105469 102.398438 31.144531 103.421875 L 31.792969 104.003906 C 32.855469 102.835938 33.394531 101.003906 33.4375 98.484375 L 33.4375 93.210938 Z M 29.269531 93.046875 L 28.6875 93.628906 C 29.542969 94.273438 30.230469 94.898438 30.75 95.503906 L 31.332031 94.898438 C 30.769531 94.273438 30.082031 93.671875 29.269531 93.046875 Z M 27.875 96.609375 L 27.875 97.421875 L 29.644531 97.421875 L 29.644531 102.085938 C 29.644531 102.296875 29.542969 102.484375 29.375 102.628906 L 29.707031 103.398438 C 30.4375 102.878906 31.105469 102.273438 31.730469 101.609375 L 31.5 100.710938 C 31.144531 101.085938 30.792969 101.441406 30.457031 101.753906 L 30.457031 96.609375 Z M 27.875 96.609375 "/>
<path style=" stroke:none;fill-rule:nonzero;fill:rgb(0%,0%,0%);fill-opacity:1;" d="M 43.667969 101.503906 C 42.582031 101.960938 41.292969 102.316406 39.832031 102.585938 L 39.9375 103.460938 C 41.332031 103.171875 42.582031 102.796875 43.667969 102.359375 Z M 41.855469 92.960938 C 41.417969 94.378906 40.917969 95.609375 40.3125 96.710938 C 40.207031 96.859375 40.082031 96.984375 39.9375 97.046875 L 40.167969 97.835938 C 40.792969 97.734375 41.394531 97.609375 42 97.484375 C 41.417969 98.609375 40.894531 99.398438 40.480469 99.878906 C 40.375 99.984375 40.230469 100.066406 40.082031 100.148438 L 40.3125 100.941406 C 41.417969 100.773438 42.5625 100.484375 43.769531 100.023438 L 43.769531 99.234375 C 42.957031 99.546875 42.144531 99.773438 41.355469 99.941406 C 42 99.085938 42.832031 97.671875 43.855469 95.671875 L 43.0625 95.359375 C 42.832031 95.835938 42.625 96.273438 42.394531 96.710938 C 41.917969 96.796875 41.4375 96.878906 40.957031 96.960938 C 41.542969 96.046875 42.105469 94.816406 42.6875 93.273438 Z M 45.125 100.171875 C 44.769531 101.171875 44.269531 102.128906 43.605469 103.066406 L 44.355469 103.484375 C 44.917969 102.671875 45.4375 101.671875 45.875 100.484375 Z M 49.625 100.171875 L 48.855469 100.421875 C 49.332031 101.296875 49.769531 102.316406 50.167969 103.484375 L 50.894531 103.148438 C 50.542969 102.085938 50.105469 101.109375 49.625 100.171875 Z M 46.9375 103.816406 C 47.625 103.816406 47.980469 103.503906 47.980469 102.859375 L 47.980469 99.484375 L 50.519531 99.484375 L 50.519531 98.710938 L 47.980469 98.710938 L 47.980469 96.378906 L 46.375 96.378906 C 46.5 95.984375 46.644531 95.523438 46.792969 95.085938 L 50.519531 95.085938 L 50.519531 94.273438 L 47.042969 94.273438 C 47.144531 93.878906 47.25 93.484375 47.355469 93.066406 L 46.519531 92.921875 C 46.394531 93.378906 46.292969 93.835938 46.167969 94.273438 L 43.5 94.273438 L 43.5 95.085938 L 45.9375 95.085938 C 45.792969 95.523438 45.644531 95.960938 45.5 96.378906 L 43.9375 96.378906 L 43.9375 97.171875 L 45.1875 97.171875 C 44.9375 97.734375 44.667969 98.273438 44.417969 98.734375 L 44.605469 99.484375 L 47.144531 99.484375 L 47.144531 102.609375 C 47.144531 102.921875 46.980469 103.066406 46.6875 103.066406 L 45.542969 103.023438 L 45.75 103.816406 Z M 46.0625 97.171875 L 47.144531 97.171875 L 47.144531 98.710938 L 45.375 98.710938 C 45.605469 98.234375 45.832031 97.710938 46.0625 97.171875 Z M 46.0625 97.171875 "/>
<path style=" stroke:none;fill-rule:nonzero;fill:rgb(0%,0%,0%);fill-opacity:1;" d="M 54.082031 96.273438 L 54.082031 98.046875 L 52.894531 98.046875 C 53.1875 97.273438 53.480469 96.398438 53.730469 95.421875 L 56.042969 95.421875 L 56.042969 94.609375 L 53.9375 94.609375 C 54.042969 94.128906 54.144531 93.609375 54.269531 93.066406 L 53.480469 92.898438 C 53.355469 93.484375 53.25 94.066406 53.125 94.609375 L 51.9375 94.609375 L 51.9375 95.421875 L 52.9375 95.421875 C 52.667969 96.484375 52.375 97.398438 52.019531 98.109375 L 52.207031 98.835938 L 54.082031 98.835938 L 54.082031 100.628906 C 53.375 100.753906 52.644531 100.878906 51.855469 100.960938 L 51.957031 101.816406 C 52.6875 101.691406 53.394531 101.585938 54.082031 101.441406 L 54.082031 103.941406 L 54.875 103.941406 L 54.875 101.273438 L 56.019531 100.984375 L 56.019531 100.171875 C 55.667969 100.253906 55.292969 100.359375 54.875 100.460938 L 54.875 98.835938 L 55.980469 98.835938 L 55.980469 98.046875 L 54.875 98.046875 L 54.875 96.273438 Z M 57.625 95.648438 L 57.625 96.359375 L 61.0625 96.359375 L 61.0625 95.648438 L 57.625 95.648438 C 58.230469 95.066406 58.8125 94.421875 59.375 93.734375 C 60.292969 94.898438 61.3125 95.898438 62.4375 96.710938 L 62.894531 96.046875 C 61.8125 95.273438 60.75 94.253906 59.6875 92.960938 L 59.082031 92.960938 C 58.105469 94.148438 57 95.210938 55.769531 96.109375 L 56.25 96.835938 C 56.707031 96.460938 57.167969 96.066406 57.625 95.648438 Z M 58.457031 103.859375 C 59.042969 103.859375 59.355469 103.546875 59.355469 102.921875 L 59.355469 97.316406 L 56.519531 97.316406 L 56.519531 103.941406 L 57.269531 103.941406 L 57.269531 101.691406 L 58.625 101.691406 L 58.625 102.773438 C 58.625 103.023438 58.480469 103.171875 58.230469 103.171875 L 57.6875 103.148438 L 57.875 103.859375 Z M 57.269531 101.023438 L 57.269531 99.878906 L 58.625 99.878906 L 58.625 101.023438 Z M 57.269531 99.210938 L 57.269531 98.023438 L 58.625 98.023438 L 58.625 99.210938 Z M 60.0625 97.648438 L 60.0625 101.960938 L 60.75 101.960938 L 60.75 97.648438 Z M 61.375 103.878906 C 61.957031 103.878906 62.25 103.523438 62.25 102.835938 L 62.25 97.109375 L 61.5 97.109375 L 61.5 102.648438 C 61.5 102.984375 61.375 103.171875 61.105469 103.171875 C 60.8125 103.171875 60.5 103.148438 60.1875 103.109375 L 60.355469 103.878906 Z M 61.375 103.878906 "/>
<path style=" stroke:none;fill-rule:nonzero;fill:rgb(0%,0%,0%);fill-opacity:1;" d="M 68.8125 95.710938 C 68.042969 98.898438 66.375 101.359375 63.792969 103.023438 L 64.3125 103.773438 C 66.832031 102.128906 68.5 99.773438 69.292969 96.710938 C 69.355469 96.859375 69.394531 97.023438 69.480469 97.234375 C 70.707031 100.398438 72.292969 102.585938 74.25 103.753906 L 74.792969 103.066406 C 72.875 101.878906 71.375 99.835938 70.25 96.984375 C 69.519531 95.023438 68.605469 93.671875 67.542969 92.921875 L 66.832031 93.378906 C 67.582031 93.941406 68.25 94.710938 68.8125 95.710938 Z M 68.8125 95.710938 "/>
<path style=" stroke:none;fill-rule:nonzero;fill:rgb(100%,100%,100%);fill-opacity:1;" d="M 301.378906 101.988281 L 401.378906 101.988281 L 401.378906 59.988281 L 301.378906 59.988281 Z M 301.378906 101.988281 "/>
<path style="fill:none;stroke-width:1;stroke-linecap:round;stroke-linejoin:round;stroke:rgb(0%,0%,0%);stroke-opacity:1;stroke-miterlimit:10;" d="M 319.03418 69.991211 L 394.03418 69.991211 L 394.03418 101.491211 L 319.03418 101.491211 Z M 319.03418 69.991211 " transform="matrix(1.333333,0,0,1.333333,-124,-33.333333)"/>
<path style=" stroke:none;fill-rule:nonzero;fill:rgb(100%,100%,100%);fill-opacity:1;" d="M 292.265625 110.933594 L 392.265625 110.933594 L 392.265625 68.933594 L 292.265625 68.933594 Z M 292.265625 110.933594 "/>
<path style="fill:none;stroke-width:1;stroke-linecap:round;stroke-linejoin:round;stroke:rgb(0%,0%,0%);stroke-opacity:1;stroke-miterlimit:10;" d="M 312.199219 76.700195 L 387.199219 76.700195 L 387.199219 108.200195 L 312.199219 108.200195 Z M 312.199219 76.700195 " transform="matrix(1.333333,0,0,1.333333,-124,-33.333333)"/>
<path style=" stroke:none;fill-rule:nonzero;fill:rgb(100%,100%,100%);fill-opacity:1;" d="M 282.933594 118.933594 L 382.933594 118.933594 L 382.933594 76.933594 L 282.933594 76.933594 Z M 282.933594 118.933594 "/>
<path style="fill:none;stroke-width:1;stroke-linecap:round;stroke-linejoin:round;stroke:rgb(0%,0%,0%);stroke-opacity:1;stroke-miterlimit:10;" d="M 305.200195 82.700195 L 380.200195 82.700195 L 380.200195 114.200195 L 305.200195 114.200195 Z M 305.200195 82.700195 " transform="matrix(1.333333,0,0,1.333333,-124,-33.333333)"/>
<path style=" stroke:none;fill-rule:nonzero;fill:rgb(0%,0%,0%);fill-opacity:1;" d="M 316.578125 93.621094 L 316.578125 103.015625 L 317.414062 103.015625 L 317.414062 93.621094 Z M 319.101562 93.039062 L 319.101562 103.828125 L 319.953125 103.828125 L 319.953125 93.039062 Z M 314.203125 93.078125 L 314.203125 98.351562 C 314.183594 100.621094 313.703125 102.265625 312.746094 103.289062 L 313.390625 103.871094 C 314.453125 102.703125 314.996094 100.871094 315.039062 98.351562 L 315.039062 93.078125 Z M 310.871094 92.914062 L 310.289062 93.496094 C 311.140625 94.140625 311.828125 94.765625 312.351562 95.371094 L 312.933594 94.765625 C 312.371094 94.140625 311.683594 93.539062 310.871094 92.914062 Z M 309.476562 96.476562 L 309.476562 97.289062 L 311.246094 97.289062 L 311.246094 101.953125 C 311.246094 102.164062 311.140625 102.351562 310.976562 102.496094 L 311.308594 103.265625 C 312.039062 102.746094 312.703125 102.140625 313.328125 101.476562 L 313.101562 100.578125 C 312.746094 100.953125 312.390625 101.308594 312.058594 101.621094 L 312.058594 96.476562 Z M 309.476562 96.476562 "/>
<path style=" stroke:none;fill-rule:nonzero;fill:rgb(0%,0%,0%);fill-opacity:1;" d="M 325.265625 101.371094 C 324.183594 101.828125 322.890625 102.183594 321.433594 102.453125 L 321.539062 103.328125 C 322.933594 103.039062 324.183594 102.664062 325.265625 102.226562 Z M 323.453125 92.828125 C 323.015625 94.246094 322.515625 95.476562 321.914062 96.578125 C 321.808594 96.726562 321.683594 96.851562 321.539062 96.914062 L 321.765625 97.703125 C 322.390625 97.601562 322.996094 97.476562 323.601562 97.351562 C 323.015625 98.476562 322.496094 99.265625 322.078125 99.746094 C 321.976562 99.851562 321.828125 99.933594 321.683594 100.015625 L 321.914062 100.808594 C 323.015625 100.640625 324.164062 100.351562 325.371094 99.890625 L 325.371094 99.101562 C 324.558594 99.414062 323.746094 99.640625 322.953125 99.808594 C 323.601562 98.953125 324.433594 97.539062 325.453125 95.539062 L 324.664062 95.226562 C 324.433594 95.703125 324.226562 96.140625 323.996094 96.578125 C 323.515625 96.664062 323.039062 96.746094 322.558594 96.828125 C 323.140625 95.914062 323.703125 94.683594 324.289062 93.140625 Z M 326.726562 100.039062 C 326.371094 101.039062 325.871094 101.996094 325.203125 102.933594 L 325.953125 103.351562 C 326.515625 102.539062 327.039062 101.539062 327.476562 100.351562 Z M 331.226562 100.039062 L 330.453125 100.289062 C 330.933594 101.164062 331.371094 102.183594 331.765625 103.351562 L 332.496094 103.015625 C 332.140625 101.953125 331.703125 100.976562 331.226562 100.039062 Z M 328.539062 103.683594 C 329.226562 103.683594 329.578125 103.371094 329.578125 102.726562 L 329.578125 99.351562 L 332.121094 99.351562 L 332.121094 98.578125 L 329.578125 98.578125 L 329.578125 96.246094 L 327.976562 96.246094 C 328.101562 95.851562 328.246094 95.390625 328.390625 94.953125 L 332.121094 94.953125 L 332.121094 94.140625 L 328.640625 94.140625 C 328.746094 93.746094 328.851562 93.351562 328.953125 92.933594 L 328.121094 92.789062 C 327.996094 93.246094 327.890625 93.703125 327.765625 94.140625 L 325.101562 94.140625 L 325.101562 94.953125 L 327.539062 94.953125 C 327.390625 95.390625 327.246094 95.828125 327.101562 96.246094 L 325.539062 96.246094 L 325.539062 97.039062 L 326.789062 97.039062 C 326.539062 97.601562 326.265625 98.140625 326.015625 98.601562 L 326.203125 99.351562 L 328.746094 99.351562 L 328.746094 102.476562 C 328.746094 102.789062 328.578125 102.933594 328.289062 102.933594 L 327.140625 102.890625 L 327.351562 103.683594 Z M 327.664062 97.039062 L 328.746094 97.039062 L 328.746094 98.578125 L 326.976562 98.578125 C 327.203125 98.101562 327.433594 97.578125 327.664062 97.039062 Z M 327.664062 97.039062 "/>
<path style=" stroke:none;fill-rule:nonzero;fill:rgb(0%,0%,0%);fill-opacity:1;" d="M 335.226562 92.828125 L 335.226562 95.101562 L 333.765625 95.101562 L 333.765625 95.933594 L 335.226562 95.933594 C 334.851562 97.433594 334.246094 98.789062 333.371094 99.976562 L 333.746094 100.914062 C 334.351562 99.976562 334.851562 98.933594 335.226562 97.808594 L 335.226562 103.789062 L 336.078125 103.789062 L 336.078125 97.765625 C 336.433594 98.226562 336.851562 98.828125 337.351562 99.578125 L 337.851562 98.851562 C 337.246094 98.121094 336.664062 97.453125 336.078125 96.851562 L 336.078125 95.933594 L 337.476562 95.933594 L 337.476562 95.101562 L 336.078125 95.101562 L 336.078125 92.828125 Z M 338.765625 98.246094 C 338.433594 99.746094 337.890625 101.078125 337.140625 102.308594 L 337.890625 102.789062 C 338.601562 101.558594 339.183594 100.121094 339.558594 98.433594 Z M 343.101562 98.203125 L 342.328125 98.453125 C 342.789062 99.746094 343.226562 101.226562 343.621094 102.890625 L 344.414062 102.539062 C 344.039062 100.996094 343.621094 99.558594 343.101562 98.203125 Z M 340.414062 103.664062 C 341.121094 103.664062 341.476562 103.308594 341.476562 102.601562 L 341.476562 97.265625 L 344.414062 97.265625 L 344.414062 96.433594 L 337.683594 96.433594 L 337.683594 97.265625 L 340.621094 97.265625 L 340.621094 102.390625 C 340.621094 102.726562 340.453125 102.914062 340.121094 102.914062 C 339.765625 102.914062 339.414062 102.890625 339.039062 102.871094 L 339.203125 103.664062 Z M 338.328125 93.515625 L 338.328125 94.328125 L 343.789062 94.328125 L 343.789062 93.515625 Z M 338.328125 93.515625 "/>
<path style=" stroke:none;fill-rule:nonzero;fill:rgb(0%,0%,0%);fill-opacity:1;" d="M 353.746094 99.664062 C 353.390625 100.808594 352.976562 101.765625 352.496094 102.578125 L 345.890625 102.578125 L 345.890625 103.390625 L 356.015625 103.390625 L 356.015625 102.578125 L 353.433594 102.578125 C 353.890625 101.789062 354.265625 100.890625 354.578125 99.890625 Z M 347.996094 99.808594 L 347.226562 100.058594 C 347.601562 100.765625 347.914062 101.496094 348.164062 102.265625 L 348.933594 102.058594 C 348.664062 101.226562 348.351562 100.453125 347.996094 99.808594 Z M 350.789062 99.578125 L 349.976562 99.828125 C 350.289062 100.578125 350.558594 101.351562 350.746094 102.164062 L 351.515625 101.953125 C 351.308594 101.058594 351.058594 100.265625 350.789062 99.578125 Z M 347.828125 98.433594 L 347.828125 99.183594 L 354.058594 99.183594 L 354.058594 98.433594 Z M 347.351562 94.601562 L 348.265625 94.601562 C 348.476562 95.058594 348.664062 95.558594 348.808594 96.058594 L 349.601562 95.765625 C 349.476562 95.414062 349.308594 95.015625 349.121094 94.601562 L 350.851562 94.601562 L 350.851562 93.828125 L 347.683594 93.828125 C 347.808594 93.539062 347.914062 93.246094 347.996094 92.933594 L 347.164062 92.765625 C 346.828125 93.871094 346.289062 94.871094 345.539062 95.789062 L 346.289062 96.246094 C 346.683594 95.746094 347.039062 95.203125 347.351562 94.601562 Z M 352.390625 94.601562 L 353.433594 94.601562 C 353.703125 95.101562 353.953125 95.621094 354.164062 96.164062 L 354.953125 95.871094 C 354.789062 95.476562 354.601562 95.058594 354.328125 94.601562 L 356.246094 94.601562 L 356.246094 93.828125 L 352.726562 93.828125 C 352.828125 93.539062 352.933594 93.246094 353.015625 92.933594 L 352.183594 92.765625 C 351.933594 93.703125 351.539062 94.539062 350.976562 95.308594 L 351.703125 95.765625 C 351.953125 95.414062 352.183594 95.015625 352.390625 94.601562 Z M 350.664062 95.789062 C 349.289062 96.808594 347.558594 97.664062 345.476562 98.351562 L 345.890625 99.101562 C 347.976562 98.371094 349.664062 97.496094 350.933594 96.496094 C 352.328125 97.578125 353.996094 98.433594 355.953125 99.101562 L 356.390625 98.371094 C 354.433594 97.746094 352.703125 96.871094 351.203125 95.789062 Z M 350.664062 95.789062 "/>
<path style=" stroke:none;fill-rule:nonzero;fill:rgb(100%,100%,100%);fill-opacity:1;" d="M 147.949219 118.933594 L 247.949219 118.933594 L 247.949219 76.933594 L 147.949219 76.933594 Z M 147.949219 118.933594 "/>
<path style="fill:none;stroke-width:1;stroke-linecap:round;stroke-linejoin:round;stroke:rgb(0%,0%,0%);stroke-opacity:1;stroke-miterlimit:10;" d="M 203.961914 82.700195 L 278.961914 82.700195 L 278.961914 114.200195 L 203.961914 114.200195 Z M 203.961914 82.700195 " transform="matrix(1.333333,0,0,1.333333,-124,-33.333333)"/>
<path style=" stroke:none;fill-rule:nonzero;fill:rgb(0%,0%,0%);fill-opacity:1;" d="M 181.199219 95.058594 L 185.054688 95.058594 L 185.054688 94.226562 L 181.492188 94.226562 C 181.597656 93.789062 181.722656 93.351562 181.804688 92.871094 L 180.929688 92.703125 C 180.617188 94.433594 180.054688 95.789062 179.199219 96.808594 L 179.742188 97.496094 C 180.324219 96.851562 180.804688 96.015625 181.199219 95.058594 Z M 182.449219 95.871094 L 181.761719 96.308594 C 182.367188 97.121094 182.847656 97.851562 183.222656 98.515625 L 183.929688 98.015625 C 183.597656 97.414062 183.097656 96.703125 182.449219 95.871094 Z M 177.804688 92.765625 L 177.804688 98.683594 L 178.699219 98.683594 L 178.699219 92.765625 Z M 175.324219 93.351562 L 175.324219 98.246094 L 176.179688 98.246094 L 176.179688 93.351562 Z M 184.074219 99.289062 L 175.847656 99.289062 L 175.847656 102.621094 L 174.492188 102.621094 L 174.492188 103.414062 L 185.367188 103.414062 L 185.367188 102.621094 L 184.074219 102.621094 Z M 176.679688 102.621094 L 176.679688 100.078125 L 178.261719 100.078125 L 178.261719 102.621094 Z M 179.097656 102.621094 L 179.097656 100.078125 L 180.785156 100.078125 L 180.785156 102.621094 Z M 181.597656 102.621094 L 181.597656 100.078125 L 183.242188 100.078125 L 183.242188 102.621094 Z M 181.597656 102.621094 "/>
<path style=" stroke:none;fill-rule:nonzero;fill:rgb(0%,0%,0%);fill-opacity:1;" d="M 188.824219 92.789062 L 188.824219 94.808594 L 186.785156 94.808594 L 186.785156 95.539062 L 188.992188 95.539062 L 188.992188 98.078125 L 189.785156 98.078125 L 189.785156 95.539062 L 192.074219 95.539062 L 192.074219 94.808594 L 189.617188 94.808594 L 189.617188 94.058594 L 191.679688 94.058594 L 191.679688 93.390625 L 189.617188 93.390625 L 189.617188 92.789062 Z M 195.722656 98.390625 L 188.285156 98.390625 L 188.285156 103.828125 L 189.117188 103.828125 L 189.117188 103.328125 L 194.886719 103.328125 L 194.886719 103.828125 L 195.722656 103.828125 Z M 189.117188 102.664062 L 189.117188 101.890625 L 194.886719 101.890625 L 194.886719 102.664062 Z M 189.117188 101.265625 L 189.117188 100.453125 L 194.886719 100.453125 L 194.886719 101.265625 Z M 189.117188 99.851562 L 189.117188 99.058594 L 194.886719 99.058594 L 194.886719 99.851562 Z M 191.054688 95.914062 L 190.386719 96.140625 C 190.699219 96.640625 190.972656 97.246094 191.242188 97.890625 L 191.867188 97.601562 C 191.636719 97.015625 191.367188 96.453125 191.054688 95.914062 Z M 192.785156 94.289062 C 192.992188 95.140625 193.410156 95.871094 194.054688 96.515625 C 193.535156 96.871094 192.910156 97.183594 192.179688 97.414062 L 192.554688 98.140625 C 193.347656 97.851562 194.054688 97.476562 194.660156 97.039062 C 195.261719 97.496094 196.011719 97.890625 196.910156 98.203125 L 197.304688 97.496094 C 196.492188 97.203125 195.804688 96.890625 195.285156 96.539062 C 195.929688 95.890625 196.410156 95.140625 196.699219 94.265625 L 196.699219 93.539062 L 192.242188 93.539062 L 192.242188 94.289062 Z M 194.636719 96.058594 C 194.054688 95.515625 193.699219 94.953125 193.554688 94.289062 L 195.824219 94.289062 C 195.574219 94.953125 195.179688 95.539062 194.636719 96.058594 Z M 187.742188 95.914062 C 187.511719 96.621094 187.160156 97.265625 186.679688 97.851562 L 187.304688 98.246094 C 187.804688 97.640625 188.179688 96.890625 188.472656 96.058594 Z M 187.742188 95.914062 "/>
<path style=" stroke:none;fill-rule:nonzero;fill:rgb(0%,0%,0%);fill-opacity:1;" d="M 209.011719 95.226562 L 206.699219 95.226562 C 207.160156 94.640625 207.597656 93.914062 208.011719 93.058594 L 207.136719 92.726562 C 206.742188 93.621094 206.285156 94.453125 205.761719 95.226562 L 198.886719 95.226562 L 198.886719 97.914062 L 199.722656 97.914062 L 199.722656 96.058594 L 208.160156 96.058594 L 208.160156 97.914062 L 209.011719 97.914062 Z M 200.722656 97.078125 L 200.722656 97.851562 L 205.949219 97.851562 C 205.429688 98.140625 204.679688 98.496094 203.660156 98.933594 L 203.660156 99.933594 L 198.804688 99.933594 L 198.804688 100.746094 L 203.660156 100.746094 L 203.660156 102.476562 C 203.660156 102.808594 203.511719 102.976562 203.222656 102.976562 C 202.699219 102.976562 202.222656 102.976562 201.785156 102.953125 L 201.992188 103.746094 L 203.511719 103.746094 C 204.199219 103.746094 204.535156 103.433594 204.535156 102.789062 L 204.535156 100.746094 L 209.117188 100.746094 L 209.117188 99.933594 L 204.535156 99.933594 L 204.535156 99.328125 C 205.511719 98.851562 206.410156 98.351562 207.199219 97.851562 L 207.199219 97.078125 Z M 200.597656 92.914062 L 199.804688 93.289062 C 200.261719 93.851562 200.679688 94.453125 201.074219 95.164062 L 201.824219 94.789062 C 201.449219 94.101562 201.011719 93.476562 200.597656 92.914062 Z M 203.492188 92.683594 L 202.722656 93.058594 C 203.117188 93.640625 203.511719 94.289062 203.867188 95.039062 L 204.636719 94.664062 C 204.285156 93.933594 203.886719 93.265625 203.492188 92.683594 Z M 203.492188 92.683594 "/>
<path style=" stroke:none;fill-rule:nonzero;fill:rgb(0%,0%,0%);fill-opacity:1;" d="M 217.636719 98.433594 C 215.847656 99.539062 213.699219 100.453125 211.199219 101.226562 L 211.554688 102.015625 C 214.074219 101.203125 216.160156 100.265625 217.867188 99.203125 Z M 212.867188 95.558594 L 212.261719 96.140625 C 213.324219 96.933594 214.179688 97.683594 214.804688 98.414062 L 215.386719 97.808594 C 214.699219 97.058594 213.867188 96.308594 212.867188 95.558594 Z M 216.386719 103.726562 C 217.160156 103.703125 217.804688 103.683594 218.304688 103.683594 C 218.972656 103.683594 219.386719 103.476562 219.617188 103.039062 C 219.867188 102.621094 220.011719 101.808594 220.054688 100.621094 C 220.097656 99.851562 220.160156 97.496094 220.199219 93.539062 L 211.492188 93.539062 L 211.492188 94.371094 L 219.324219 94.371094 C 219.304688 97.308594 219.304688 99.183594 219.285156 100.039062 C 219.242188 101.289062 219.136719 102.101562 218.949219 102.433594 C 218.761719 102.746094 218.492188 102.933594 218.136719 102.933594 C 217.472656 102.933594 216.804688 102.914062 216.160156 102.890625 Z M 216.386719 103.726562 "/>
<path style=" stroke:none;fill-rule:nonzero;fill:rgb(100%,100%,100%);fill-opacity:1;" d="M 147.949219 181.332031 L 247.949219 181.332031 L 247.949219 139.332031 L 147.949219 139.332031 Z M 147.949219 181.332031 "/>
<path style="fill:none;stroke-width:1;stroke-linecap:round;stroke-linejoin:round;stroke:rgb(0%,0%,0%);stroke-opacity:1;stroke-miterlimit:10;" d="M 203.961914 129.499023 L 278.961914 129.499023 L 278.961914 160.999023 L 203.961914 160.999023 Z M 203.961914 129.499023 " transform="matrix(1.333333,0,0,1.333333,-124,-33.333333)"/>
<path style=" stroke:none;fill-rule:nonzero;fill:rgb(0%,0%,0%);fill-opacity:1;" d="M 190.136719 156.1875 L 190.136719 156.957031 L 191.886719 156.957031 L 191.886719 157.855469 L 192.699219 157.855469 L 192.699219 156.957031 L 194.617188 156.957031 L 194.617188 157.855469 L 195.449219 157.855469 L 195.449219 156.957031 L 197.304688 156.957031 L 197.304688 156.1875 L 195.449219 156.1875 L 195.449219 155.230469 L 194.617188 155.230469 L 194.617188 156.1875 L 192.699219 156.1875 L 192.699219 155.230469 L 191.886719 155.230469 L 191.886719 156.1875 Z M 193.511719 163.730469 C 194.199219 164.730469 195.324219 165.5625 196.886719 166.230469 L 197.449219 165.542969 C 196.035156 165.042969 194.992188 164.394531 194.285156 163.5625 L 197.324219 163.5625 L 197.324219 162.769531 L 193.867188 162.769531 C 193.949219 162.5 194.011719 162.207031 194.054688 161.875 L 196.511719 161.875 L 196.511719 158.230469 L 190.785156 158.230469 L 190.785156 161.875 L 193.304688 161.875 C 193.242188 162.1875 193.160156 162.5 193.074219 162.769531 L 189.910156 162.769531 L 189.910156 163.5625 L 192.699219 163.5625 C 192.617188 163.75 192.492188 163.894531 192.367188 164.042969 C 191.847656 164.667969 190.992188 165.125 189.785156 165.457031 L 190.097656 166.167969 C 191.492188 165.769531 192.449219 165.25 192.992188 164.542969 C 193.179688 164.3125 193.367188 164.019531 193.511719 163.730469 Z M 188.972656 160.0625 C 189.285156 160.542969 189.679688 161.1875 190.117188 161.980469 L 190.574219 161.292969 C 190.011719 160.480469 189.492188 159.769531 188.972656 159.144531 L 188.972656 158.355469 L 190.242188 158.355469 L 190.242188 157.5625 L 188.972656 157.5625 L 188.972656 155.25 L 188.160156 155.25 L 188.160156 157.5625 L 186.761719 157.5625 L 186.761719 158.355469 L 188.160156 158.355469 L 188.160156 158.417969 C 187.804688 159.894531 187.199219 161.1875 186.367188 162.332031 L 186.742188 163.269531 C 187.324219 162.355469 187.785156 161.3125 188.160156 160.1875 L 188.160156 166.167969 L 188.972656 166.167969 Z M 195.742188 161.1875 L 191.554688 161.1875 L 191.554688 160.375 L 195.742188 160.375 Z M 191.554688 159.730469 L 191.554688 158.9375 L 195.742188 158.9375 L 195.742188 159.730469 Z M 191.554688 159.730469 "/>
<path style=" stroke:none;fill-rule:nonzero;fill:rgb(0%,0%,0%);fill-opacity:1;" d="M 199.074219 155.730469 L 199.074219 156.5 L 200.285156 156.5 L 200.285156 158.3125 L 198.761719 158.3125 L 198.761719 159.105469 L 200.242188 159.105469 C 200.117188 160.082031 199.722656 160.8125 199.054688 161.3125 L 199.699219 161.875 C 200.492188 161.25 200.949219 160.332031 201.074219 159.105469 L 202.660156 159.105469 L 202.660156 161.730469 L 203.492188 161.730469 L 203.492188 159.105469 L 204.972656 159.105469 L 204.972656 158.3125 L 203.492188 158.3125 L 203.492188 156.5 L 204.699219 156.5 L 204.699219 155.730469 Z M 201.117188 156.5 L 202.660156 156.5 L 202.660156 158.3125 L 201.117188 158.3125 Z M 205.679688 156.019531 L 205.679688 160.144531 L 206.511719 160.144531 L 206.511719 156.019531 Z M 199.347656 162.917969 L 199.347656 163.707031 L 203.574219 163.707031 L 203.574219 165.105469 L 198.679688 165.105469 L 198.679688 165.894531 L 209.222656 165.894531 L 209.222656 165.105469 L 204.429688 165.105469 L 204.429688 163.707031 L 208.554688 163.707031 L 208.554688 162.917969 L 204.429688 162.917969 L 204.429688 161.875 L 203.574219 161.875 L 203.574219 162.917969 Z M 207.722656 161.855469 C 208.347656 161.855469 208.679688 161.480469 208.679688 160.75 L 208.679688 155.355469 L 207.847656 155.355469 L 207.847656 160.542969 C 207.847656 160.894531 207.699219 161.082031 207.429688 161.082031 C 206.949219 161.082031 206.449219 161.0625 205.929688 161.019531 L 206.117188 161.855469 Z M 207.722656 161.855469 "/>
<path style=" stroke:none;fill-rule:nonzero;fill:rgb(100%,100%,100%);fill-opacity:1;" d="M 282.933594 181.332031 L 382.933594 181.332031 L 382.933594 139.332031 L 282.933594 139.332031 Z M 282.933594 181.332031 "/>
<path style="fill:none;stroke-width:1;stroke-linecap:round;stroke-linejoin:round;stroke:rgb(0%,0%,0%);stroke-opacity:1;stroke-miterlimit:10;" d="M 305.200195 129.499023 L 380.200195 129.499023 L 380.200195 160.999023 L 305.200195 160.999023 Z M 305.200195 129.499023 " transform="matrix(1.333333,0,0,1.333333,-124,-33.333333)"/>
<path style=" stroke:none;fill-rule:nonzero;fill:rgb(0%,0%,0%);fill-opacity:1;" d="M 323.683594 158.542969 L 323.683594 160.3125 L 322.496094 160.3125 C 322.789062 159.542969 323.078125 158.667969 323.328125 157.6875 L 325.640625 157.6875 L 325.640625 156.875 L 323.539062 156.875 C 323.640625 156.394531 323.746094 155.875 323.871094 155.332031 L 323.078125 155.167969 C 322.953125 155.75 322.851562 156.332031 322.726562 156.875 L 321.539062 156.875 L 321.539062 157.6875 L 322.539062 157.6875 C 322.265625 158.75 321.976562 159.667969 321.621094 160.375 L 321.808594 161.105469 L 323.683594 161.105469 L 323.683594 162.894531 C 322.976562 163.019531 322.246094 163.144531 321.453125 163.230469 L 321.558594 164.082031 C 322.289062 163.957031 322.996094 163.855469 323.683594 163.707031 L 323.683594 166.207031 L 324.476562 166.207031 L 324.476562 163.542969 L 325.621094 163.25 L 325.621094 162.4375 C 325.265625 162.519531 324.890625 162.625 324.476562 162.730469 L 324.476562 161.105469 L 325.578125 161.105469 L 325.578125 160.3125 L 324.476562 160.3125 L 324.476562 158.542969 Z M 327.226562 157.917969 L 327.226562 158.625 L 330.664062 158.625 L 330.664062 157.917969 L 327.226562 157.917969 C 327.828125 157.332031 328.414062 156.6875 328.976562 156 C 329.890625 157.167969 330.914062 158.167969 332.039062 158.980469 L 332.496094 158.3125 C 331.414062 157.542969 330.351562 156.519531 329.289062 155.230469 L 328.683594 155.230469 C 327.703125 156.417969 326.601562 157.480469 325.371094 158.375 L 325.851562 159.105469 C 326.308594 158.730469 326.765625 158.332031 327.226562 157.917969 Z M 328.058594 166.125 C 328.640625 166.125 328.953125 165.8125 328.953125 165.1875 L 328.953125 159.582031 L 326.121094 159.582031 L 326.121094 166.207031 L 326.871094 166.207031 L 326.871094 163.957031 L 328.226562 163.957031 L 328.226562 165.042969 C 328.226562 165.292969 328.078125 165.4375 327.828125 165.4375 L 327.289062 165.417969 L 327.476562 166.125 Z M 326.871094 163.292969 L 326.871094 162.144531 L 328.226562 162.144531 L 328.226562 163.292969 Z M 326.871094 161.480469 L 326.871094 160.292969 L 328.226562 160.292969 L 328.226562 161.480469 Z M 329.664062 159.917969 L 329.664062 164.230469 L 330.351562 164.230469 L 330.351562 159.917969 Z M 330.976562 166.144531 C 331.558594 166.144531 331.851562 165.792969 331.851562 165.105469 L 331.851562 159.375 L 331.101562 159.375 L 331.101562 164.917969 C 331.101562 165.25 330.976562 165.4375 330.703125 165.4375 C 330.414062 165.4375 330.101562 165.417969 329.789062 165.375 L 329.953125 166.144531 Z M 330.976562 166.144531 "/>
<path style=" stroke:none;fill-rule:nonzero;fill:rgb(0%,0%,0%);fill-opacity:1;" d="M 342.183594 159.375 L 339.371094 159.375 L 339.371094 155.1875 L 338.496094 155.1875 L 338.496094 159.375 L 335.683594 159.375 L 335.683594 156.105469 L 334.808594 156.105469 L 334.808594 160.207031 L 338.496094 160.207031 L 338.496094 164.625 L 335.101562 164.625 L 335.101562 161.332031 L 334.226562 161.332031 L 334.226562 166.125 L 335.101562 166.125 L 335.101562 165.4375 L 342.765625 165.4375 L 342.765625 166.125 L 343.640625 166.125 L 343.640625 161.332031 L 342.765625 161.332031 L 342.765625 164.625 L 339.371094 164.625 L 339.371094 160.207031 L 343.058594 160.207031 L 343.058594 156.105469 L 342.183594 156.105469 Z M 342.183594 159.375 "/>
<path style="fill:none;stroke-width:1;stroke-linecap:round;stroke-linejoin:miter;stroke:rgb(0%,0%,0%);stroke-opacity:1;stroke-miterlimit:10;" d="M 305.200195 98.450195 L 284.862305 98.450195 " transform="matrix(1.333333,0,0,1.333333,-124,-33.333333)"/>
<path style="fill:none;stroke-width:1;stroke-linecap:butt;stroke-linejoin:miter;stroke:rgb(0%,0%,0%);stroke-opacity:1;stroke-miterlimit:10;" d="M 280.863281 98.450195 L 284.862305 98.450195 M 284.862305 99.950195 L 280.863281 98.450195 L 284.862305 96.950195 " transform="matrix(1.333333,0,0,1.333333,-124,-33.333333)"/>
<path style="fill:none;stroke-width:1;stroke-linecap:round;stroke-linejoin:miter;stroke:rgb(0%,0%,0%);stroke-opacity:1;stroke-miterlimit:10;" d="M 241.461914 114.200195 L 241.461914 123.601562 " transform="matrix(1.333333,0,0,1.333333,-124,-33.333333)"/>
<path style="fill:none;stroke-width:1;stroke-linecap:butt;stroke-linejoin:miter;stroke:rgb(0%,0%,0%);stroke-opacity:1;stroke-miterlimit:10;" d="M 241.461914 127.600586 L 241.461914 123.601562 M 242.961914 123.601562 L 241.461914 127.600586 L 239.961914 123.601562 " transform="matrix(1.333333,0,0,1.333333,-124,-33.333333)"/>
<path style="fill:none;stroke-width:1;stroke-linecap:round;stroke-linejoin:miter;stroke:rgb(0%,0%,0%);stroke-opacity:1;stroke-miterlimit:10;" d="M 168.999023 145.249023 L 198.061523 145.249023 " transform="matrix(1.333333,0,0,1.333333,-124,-33.333333)"/>
<path style="fill:none;stroke-width:1;stroke-linecap:butt;stroke-linejoin:miter;stroke:rgb(0%,0%,0%);stroke-opacity:1;stroke-miterlimit:10;" d="M 202.063477 145.249023 L 198.061523 145.249023 M 198.061523 143.749023 L 202.063477 145.249023 L 198.061523 146.749023 " transform="matrix(1.333333,0,0,1.333333,-124,-33.333333)"/>
<path style=" stroke:none;fill-rule:nonzero;fill:rgb(69.803923%,85.09804%,100%);fill-opacity:1;" d="M 147.199219 43.863281 L 247.199219 43.863281 L 247.199219 1.863281 L 147.199219 1.863281 Z M 147.199219 43.863281 "/>
<path style="fill:none;stroke-width:1;stroke-linecap:round;stroke-linejoin:round;stroke:rgb(0%,0%,0%);stroke-opacity:1;stroke-miterlimit:10;" d="M 203.399414 26.397461 L 278.399414 26.397461 L 278.399414 57.897461 L 203.399414 57.897461 Z M 203.399414 26.397461 " transform="matrix(1.333333,0,0,1.333333,-124,-33.333333)"/>
<path style=" stroke:none;fill-rule:nonzero;fill:rgb(0%,0%,0%);fill-opacity:1;" d="M 194.429688 21.574219 L 193.761719 21.992188 C 194.742188 23.222656 195.511719 24.324219 196.097656 25.324219 L 196.824219 24.824219 C 196.261719 23.886719 195.449219 22.824219 194.429688 21.574219 Z M 186.035156 22.097656 L 186.035156 22.929688 L 187.367188 22.929688 L 187.367188 26.011719 C 186.804688 26.160156 186.261719 26.285156 185.699219 26.367188 L 185.910156 27.199219 C 187.304688 26.886719 188.597656 26.492188 189.804688 26.035156 L 189.804688 25.199219 C 189.285156 25.410156 188.742188 25.597656 188.199219 25.761719 L 188.199219 22.929688 L 189.574219 22.929688 L 189.574219 22.097656 L 188.199219 22.097656 L 188.199219 19.511719 L 189.742188 19.511719 L 189.742188 18.660156 L 185.847656 18.660156 L 185.847656 19.511719 L 187.367188 19.511719 L 187.367188 22.097656 Z M 190.222656 18.324219 L 190.222656 19.160156 L 193.304688 19.160156 C 192.617188 21.347656 191.410156 23.222656 189.660156 24.785156 L 190.179688 25.449219 C 191.222656 24.535156 192.074219 23.492188 192.761719 22.324219 L 192.761719 28.722656 L 193.617188 28.722656 L 193.617188 20.679688 C 193.824219 20.179688 193.992188 19.679688 194.160156 19.160156 L 196.304688 19.160156 L 196.304688 18.324219 Z M 190.222656 18.324219 "/>
<path style=" stroke:none;fill-rule:nonzero;fill:rgb(0%,0%,0%);fill-opacity:1;" d="M 201.679688 18.636719 L 201.679688 19.367188 L 202.785156 19.367188 C 202.949219 19.742188 203.097656 20.179688 203.222656 20.636719 L 201.324219 20.636719 L 201.324219 21.367188 L 208.535156 21.367188 L 208.535156 20.636719 L 206.472656 20.636719 C 206.660156 20.222656 206.804688 19.785156 206.929688 19.367188 L 208.179688 19.367188 L 208.179688 18.636719 L 205.304688 18.636719 C 205.199219 18.261719 205.117188 17.929688 204.992188 17.617188 L 204.074219 17.761719 C 204.199219 18.035156 204.304688 18.324219 204.429688 18.636719 Z M 205.636719 20.636719 L 204.035156 20.636719 C 203.910156 20.179688 203.785156 19.761719 203.636719 19.367188 L 206.117188 19.367188 C 206.011719 19.785156 205.847656 20.222656 205.636719 20.636719 Z M 202.074219 22.117188 L 202.074219 25.886719 L 203.367188 25.886719 C 203.242188 26.410156 202.992188 26.824219 202.617188 27.136719 C 202.179688 27.492188 201.449219 27.785156 200.449219 27.972656 L 200.785156 28.742188 C 201.929688 28.492188 202.761719 28.117188 203.261719 27.636719 C 203.722656 27.199219 204.035156 26.617188 204.179688 25.886719 L 205.347656 25.886719 L 205.347656 27.597656 C 205.347656 28.242188 205.660156 28.574219 206.285156 28.574219 L 207.660156 28.574219 C 207.992188 28.574219 208.242188 28.492188 208.410156 28.304688 C 208.574219 28.117188 208.699219 27.597656 208.761719 26.722656 L 207.992188 26.492188 C 207.972656 27.136719 207.910156 27.511719 207.824219 27.660156 C 207.761719 27.742188 207.660156 27.804688 207.511719 27.804688 L 206.535156 27.804688 C 206.304688 27.804688 206.179688 27.679688 206.179688 27.429688 L 206.179688 25.886719 L 207.699219 25.886719 L 207.699219 22.117188 Z M 206.886719 25.179688 L 202.867188 25.179688 L 202.867188 24.285156 L 206.886719 24.285156 Z M 202.867188 23.679688 L 202.867188 22.804688 L 206.886719 22.804688 L 206.886719 23.679688 Z M 201.304688 25.011719 C 200.824219 25.242188 200.347656 25.449219 199.847656 25.636719 L 199.847656 21.492188 L 200.929688 21.492188 L 200.929688 20.660156 L 199.847656 20.660156 L 199.847656 17.804688 L 198.972656 17.804688 L 198.972656 20.660156 L 197.722656 20.660156 L 197.722656 21.492188 L 198.972656 21.492188 L 198.972656 25.929688 C 198.554688 26.054688 198.136719 26.160156 197.722656 26.261719 L 197.949219 27.199219 C 199.136719 26.847656 200.261719 26.410156 201.304688 25.886719 Z M 201.304688 25.011719 "/>
<path style="fill:none;stroke-width:1;stroke-linecap:round;stroke-linejoin:miter;stroke:rgb(0%,0%,0%);stroke-opacity:1;stroke-miterlimit:10;" d="M 278.399414 42.147461 L 288.366211 42.147461 C 288.389648 42.147461 288.410156 42.147461 288.433594 42.15332 L 319.286133 42.557617 C 319.30957 42.557617 319.333008 42.557617 319.350586 42.557617 L 351.536133 42.557617 C 354.292969 42.557617 356.53418 44.795898 356.53418 47.558594 L 356.53418 64.09082 " transform="matrix(1.333333,0,0,1.333333,-124,-33.333333)"/>
<path style="fill:none;stroke-width:1;stroke-linecap:butt;stroke-linejoin:miter;stroke:rgb(0%,0%,0%);stroke-opacity:1;stroke-miterlimit:10;" d="M 356.53418 68.089844 L 356.53418 64.09082 M 358.03418 64.09082 L 356.53418 68.089844 L 355.03418 64.09082 " transform="matrix(1.333333,0,0,1.333333,-124,-33.333333)"/>
<path style="fill:none;stroke-width:1;stroke-linecap:round;stroke-linejoin:miter;stroke:rgb(0%,0%,0%);stroke-opacity:1;stroke-miterlimit:10;" d="M 203.399414 42.147461 L 193.444336 42.147461 C 193.415039 42.147461 193.382812 42.147461 193.356445 42.147461 L 170.695312 41.734375 C 170.663086 41.734375 170.633789 41.734375 170.604492 41.734375 L 149.124023 41.734375 C 146.364258 41.734375 144.125977 43.972656 144.125977 46.735352 L 144.125977 64.899414 " transform="matrix(1.333333,0,0,1.333333,-124,-33.333333)"/>
<path style="fill:none;stroke-width:1;stroke-linecap:butt;stroke-linejoin:miter;stroke:rgb(0%,0%,0%);stroke-opacity:1;stroke-miterlimit:10;" d="M 144.125977 68.898438 L 144.125977 64.899414 M 145.625977 64.899414 L 144.125977 68.898438 L 142.625977 64.899414 " transform="matrix(1.333333,0,0,1.333333,-124,-33.333333)"/>
<path style="fill:none;stroke-width:1;stroke-linecap:round;stroke-linejoin:miter;stroke:rgb(0%,0%,0%);stroke-opacity:1;stroke-miterlimit:10;" d="M 278.961914 145.249023 L 299.299805 145.249023 " transform="matrix(1.333333,0,0,1.333333,-124,-33.333333)"/>
<path style="fill:none;stroke-width:1;stroke-linecap:butt;stroke-linejoin:miter;stroke:rgb(0%,0%,0%);stroke-opacity:1;stroke-miterlimit:10;" d="M 303.301758 145.249023 L 299.299805 145.249023 M 299.299805 143.749023 L 303.301758 145.249023 L 299.299805 146.749023 " transform="matrix(1.333333,0,0,1.333333,-124,-33.333333)"/>
</g>
</svg>
